<?xml version="1.0" encoding="utf-8"?>
<!-- Generator: Adobe Illustrator 21.1.0, SVG Export Plug-In . SVG Version: 6.00 Build 0)  -->
<svg version="1.1" id="Layer_1" xmlns="http://www.w3.org/2000/svg" xmlns:xlink="http://www.w3.org/1999/xlink" x="0px" y="0px"
	 viewBox="0 0 841.9 595.3" style="enable-background:new 0 0 841.9 595.3;" xml:space="preserve">
<style type="text/css">
	.st0{fill:#231F20;}
	.st1{fill:#F26544;}
</style>
<g id="Vertical">
	<path class="st0" d="M49.5,37.4c-2.2-3.5-6-5.3-10.3-5.3c-6.8,0-12.1,3-12.1,9.8c0,7.3,6.7,9.5,13,10.5c6.3,1.1,13,3.1,13,10.6
		c0,7.8-5.7,11.5-13.9,11.5c-8.2,0-13.9-4.7-13.9-15h1.2c0,9.3,5.2,13.8,12.7,13.8c7.6,0,12.7-3.2,12.7-10.3c0-6.8-6.3-8.5-12-9.5
		c-6.7-1.1-13.9-3.4-13.9-11.6c0-7.6,5.8-11,13.3-11c4.7,0,8.9,1.8,11.3,5.7"/>
	<path class="st0" d="M89.1,59.2v14.7h-1.2V31.6h11.8c8.3,0,14.2,4.6,14.2,13v1.9c0,7.9-5.3,12.3-12.9,12.7l12.9,14.7h-1.6
		L99.2,59.2H89.1z M89.1,58h10.6c7.6,0,13-4,13-11.5v-1.9c0-7.6-5.3-11.8-13-11.8H89.1V58z"/>
	<path class="st0" d="M153.1,31.6v26.6h24.5V31.6h1.2v42.3h-1.2V59.3h-24.5v14.6h-1.2V31.6H153.1z"/>
	<path class="st0" d="M122.4,58.2h18.4V31.6h1.2v42.3h-1.2V59.3h-18.4"/>
	<path class="st0" d="M58.3,58.2h18.4V31.6h1.2v42.3h-1.2V59.3H58.3"/>
	<path class="st0" d="M89.1,80.6v41.1H110v1.2H87.9V80.6H89.1z"/>
	<path class="st0" d="M114.5,108.7v-14c0-8.7,5.8-14.8,14.2-14.8c8.3,0,14.2,6.1,14.2,14.8v14c0,8.7-5.9,14.8-14.2,14.8
		C120.3,123.5,114.5,117.4,114.5,108.7z M141.7,108.7v-14c0-8-5.4-13.6-13-13.6c-7.7,0-13,5.6-13,13.6v14c0,8,5.3,13.6,13,13.6
		C136.3,122.3,141.7,116.7,141.7,108.7z"/>
	<path class="st0" d="M151.2,108.7v-14c0-8.7,5.8-14.8,14.2-14.8c8.3,0,14.2,6.1,14.2,14.8v14c0,8.7-5.9,14.8-14.2,14.8
		C157,123.4,151.2,117.4,151.2,108.7z M178.4,108.7v-14c0-8-5.4-13.6-13-13.6c-7.7,0-13,5.6-13,13.6v14c0,8,5.3,13.6,13,13.6
		C173,122.2,178.4,116.6,178.4,108.7z"/>
	<g>
		<path class="st1" d="M61.5,53.8c0.7-1.7,1.5-3.3,2.7-4.6c0.8-2.3,2.4-4,3.8-5.9c0.6-0.8,1.1-1.5,1.8-2.4c0-0.2,0.1-0.5,0.3-1
			c0.6-0.6,1.3-1.3,2.1-2c1.2-2.8,3.1-5.3,4.8-7.8c0.4-0.6,0.6-1.1,0.9-1.7c0.5-1.2,1.1-2.5,1.9-3.5c0.9-1.1,1.4-2.4,2.3-3.7
			c0-0.8,0-1.6,0.1-2.5c0.5-0.3,1-0.6,1.6-0.9c0.7,0,1.4,0,2.4,0.1c0.3,0.4,0.7,0.8,1.1,1.2c0,0.4,0,0.8,0.1,1.1
			c-0.9,1.1-1.7,2.1-2.5,3.2c-0.1,0.1-0.3,0.3-0.3,0.5c-0.1,1.3-1.2,1.8-1.9,2.7c-1.1,1.4-2.4,2.7-3.6,4c-0.9,1.1-1.8,2.2-2.9,3.4
			c-0.9,2.7-3.3,4.5-4.9,6.9c0,0.3-0.1,0.5-0.1,0.8c-0.5,0.9-1.4,1.5-2,2.4c-0.5,0.8-1,1.6-1.5,2.4c-0.6,0.9-1.2,1.7-1.8,2.6
			c-0.5,0.8-1,1.6-1.5,2.4c-1.1,0.4-1.2,1.6-1.9,2.4C62.1,53.8,61.8,53.8,61.5,53.8L61.5,53.8z"/>
		<path class="st1" d="M42,86.3c-0.2,0.4-0.5,0.9-0.8,1.6c-0.9,0.3-1.6,1.3-2.8,0.8c-0.6-0.8-1-1.6-0.8-2.6c0.1-0.8,1.2-0.6,1.2-1.4
			c0.8-0.9,1.6-1.8,2.5-2.6c1.2-1.2,2.4-2.5,3.1-4c0.7-1.5,1.8-2.7,2.6-4c0.1-0.1,0.3-0.2,0.6-0.3c0.2,0.2,0.3,0.4,0.5,0.6
			c-0.4,0.9-0.7,1.8-1.1,2.6c-0.5,0.9-1.1,1.7-1.6,2.6c-0.5,0.8-0.9,1.7-1.5,2.4c-1,1.1-1.4,2.4-2.2,3.6C41.7,85.7,41.8,86,42,86.3z
			"/>
		<path class="st1" d="M49.5,71.9c-0.1-1.1,0.4-2,1.1-2.8c0.2,0.1,0.4,0.2,0.6,0.3c-0.1,0.3,0,0.5-0.1,0.6
			C50.4,70.5,50.3,71.5,49.5,71.9L49.5,71.9z"/>
		<path class="st1" d="M59.7,57.2c0,0.7-0.3,1.2-0.9,1.6C58.6,57.9,58.6,57.9,59.7,57.2L59.7,57.2z"/>
		<path class="st1" d="M53.2,65.8c0-0.6,0.3-1,0.9-1.1c0.3,0.5,0,0.8-0.3,1.1C53.6,66,53.3,66.2,53.2,65.8z"/>
		<path class="st1" d="M49.5,71.9c0,0.7-0.2,1.3-0.9,1.6C48.4,72.6,48.4,72.6,49.5,71.9L49.5,71.9z"/>
		<path class="st1" d="M54.4,63.6c0.9-0.3,1,0.1,1,0.6C54.8,64.5,54.7,64,54.4,63.6z"/>
		<path class="st1" d="M57.1,60.6c0.5-0.5,0.7-0.7,0.9-0.9C58.5,60.3,58.5,60.3,57.1,60.6z"/>
		<path class="st1" d="M60.9,55c0-0.5-0.1-1,0.6-1.1l0,0C61.5,54.3,61.6,54.8,60.9,55L60.9,55z"/>
		<path class="st1" d="M59.7,57.2c0.1-0.1,0.2-0.3,0.3-0.4C60.3,57.2,59.8,57.1,59.7,57.2L59.7,57.2z"/>
		<path class="st1" d="M60.9,54.9c-0.1,0.1-0.2,0.3-0.3,0.4C60.3,55,60.7,55,60.9,54.9L60.9,54.9z"/>
		<path class="st1" d="M51.9,67.9c-0.1,0.1-0.2,0.3-0.3,0.4C51.3,67.9,51.7,68,51.9,67.9L51.9,67.9z"/>
		<path class="st1" d="M51.9,67.9c0.1-0.1,0.2-0.3,0.3-0.4C52.5,67.9,52.1,67.8,51.9,67.9L51.9,67.9z"/>
	</g>
	<g>
		<path class="st1" d="M130.9,46.8c-0.3-0.1-0.6-0.2-0.8-0.2c0.9-2.5,1.8-3.9,3.5-5.6c0.6-1.6,1.2-3.2,2.5-4.4
			c0.3-0.3,0.7-0.7,0.9-1.1c1.1-2.4,3.3-4.3,3.9-7c0-0.2,0.2-0.3,0.3-0.5c0.7-0.9,1.5-1.8,1.9-2.8c0.4-1.1,1.6-1.7,1.5-3
			c0.8-0.7,1.1-1.5,1.3-2.5c0.1-0.3,0-0.7,0.1-1.1c0.6-0.5,1.2-1.1,1.9-1.6c0.3,0,0.6,0,1,0c0.4,0.4,0.9,0.9,1.4,1.4
			c0,0.6-0.1,1.1-0.1,1.9c-1.1,1-2,2.4-2.8,3.8c-0.7,1.3-1.7,2.6-2.8,3.6c-1.1,1-2,2.2-2.5,3.7c-0.3,0.9-0.9,1.7-1.7,2.3
			c-1.5,1.2-2.6,2.8-3.6,4.4c-0.6,0.9-1.1,1.8-1.8,2.6c-1.3,1.5-2.4,3.2-3.4,5C131.6,46.1,131.2,46.4,130.9,46.8z"/>
		<path class="st1" d="M110.6,76c0,0.4,0,0.8-0.1,1.1c-0.5,0.8-1.1,1.4-1.4,2.2c-0.4,0.8-1.4,1.1-1.6,1.9c-0.2,0.9-0.8,1.5-1.1,2.3
			c-0.4,0.8-0.7,1.6-1,2.3c-0.4,0.8-0.4,1.7-0.7,2.6c-0.6,0.3-1.3,0.7-2.1,1.1c-0.3-0.5-0.6-1-1.1-1.9c0-0.1,0-0.7,0.1-1.4
			c2.1-1.9,3.7-4.2,5.5-6.5C108.1,78.5,109.3,77.2,110.6,76L110.6,76z"/>
		<path class="st1" d="M123.8,56.4c0.1-1.3,0.9-2.3,1.6-3.3c0.7-0.9,1.2-1.9,1.8-2.9c0.6-1,1.3-1.9,1.9-2.8c0.3,0.1,0.5,0.2,0.7,0.3
			c0,1.2-1.8,1.4-1.2,2.7c-1.6,1.6-2.8,3.1-3.7,4.9C124.7,55.8,124.4,56.2,123.8,56.4L123.8,56.4z"/>
		<path class="st1" d="M114,71.1c-0.1-0.6-0.2-0.8-0.1-0.9c0.7-1,1.3-2.1,2-3.1c0.2-0.2,0.4-0.5,0.4-0.7c0.1-1,0.8-1.5,1.5-2
			c0.1,0.1,0.3,0.3,0.3,0.3c-0.8,1.6-1.4,3.3-2.5,4.7C115.2,69.9,114.7,70.4,114,71.1z"/>
		<path class="st1" d="M110.7,76.1c0-0.6,0.1-1.1,0.1-1.8c0.3-0.4,0.7-0.8,1-1.2c0.3-0.4,0.6-0.9,1-1.4c0.3,0.1,0.6,0.1,0.8,0.1
			C113.8,72.5,113.5,72.8,110.7,76.1L110.7,76.1z"/>
		<path class="st1" d="M123.1,56.9c-0.5,1.8-0.6,1.9-1.7,2.6c-0.4-0.8,0.5-1.1,0.6-1.7C122.2,57.4,122.8,57.2,123.1,56.9
			C123.2,56.9,123.1,56.9,123.1,56.9z"/>
		<path class="st1" d="M119,62.7c0.5,0.2,0.3,0.5,0.2,0.8C118.7,63.3,118.8,63,119,62.7z"/>
		<path class="st1" d="M123.2,56.9c0.1-0.3,0.2-0.5,0.6-0.6l0,0C123.7,56.7,123.5,56.9,123.2,56.9L123.2,56.9z"/>
		<path class="st1" d="M119.7,61.8c0-0.1-0.1-0.1-0.1-0.2c0-0.1,0.1-0.1,0.2-0.1c0,0.1,0.1,0.1,0.1,0.2
			C119.8,61.7,119.8,61.8,119.7,61.8z"/>
	</g>
</g>
</svg>
